<svg width="320" height="552" xmlns="http://www.w3.org/2000/svg" xmlns:xlink="http://www.w3.org/1999/xlink" version="1.1">
 <!-- Generator: Sketch 52.2 (67145) - http://www.bohemiancoding.com/sketch -->
 <title>saml-mobile</title>
 <desc>Created with Sketch.</desc>
 <defs>
  <rect rx="10" height="153" width="253" y="322" x="34" id="path-1"/>
  <mask fill="white" height="153" width="253" y="0" x="0" maskUnits="objectBoundingBox" maskContentUnits="userSpaceOnUse" id="mask-2">
   <use id="svg_1" xlink:href="#path-1"/>
  </mask>
  <polygon points="1 0.4951 1.5052 0.4951 1.5052 1.4951 1 1.4951" id="path-3"/>
  <polygon points="0.5047 0.5 1.01 0.5 1.01 1.5 0.5047 1.5" id="path-5"/>
  <polygon points="0.3929 0.4951 1.3929 0.4951 1.3929 1 0.3929 1" id="path-7"/>
  <polygon points="0.3875 0.99 1.3875 0.99 1.3875 1.4951 0.3875 1.4951" id="path-9"/>
  <polygon points="1 0.4951 1.5051 0.4951 1.5051 1.4951 1 1.4951" id="path-11"/>
  <polygon points="0.5051 0.5 1.01 0.5 1.01 1.5 0.5051 1.5" id="path-13"/>
  <polygon points="0.3928 0.4951 1.3928 0.4951 1.3928 1 0.3928 1" id="path-15"/>
  <polygon points="0.3875 0.99 1.3875 0.99 1.3875 1.4951 0.3875 1.4951" id="path-17"/>
  <polygon points="1 0.4951 1.505 0.4951 1.505 1.4951 1 1.4951" id="path-19"/>
  <polygon points="0.505 0.5 1.01 0.5 1.01 1.5 0.505 1.5" id="path-21"/>
  <polygon points="0.3927 0.4951 1.3927 0.4951 1.3927 1 0.3927 1" id="path-23"/>
  <polygon points="0.3878 0.99 1.3878 0.99 1.3878 1.4951 0.3878 1.4951" id="path-25"/>
 </defs>
 <g>
  <title>background</title>
  <rect fill="none" id="canvas_background" height="892" width="1534" y="-1" x="-1"/>
 </g>
 <g>
  <title>Layer 1</title>
  <g fill-rule="evenodd" fill="none" id="saml-mobile">
   <path fill="#4A4C54" id="Fill-1" d="m74.994301,74.947998c7.011627,-3.606079 11.814445,-10.870209 11.814445,-19.261799c0,-11.977348 -9.762939,-21.686199 -21.809883,-21.686199c-12.044682,0 -21.809895,9.708851 -21.809895,21.686199c0,8.39159 4.802822,15.65572 11.81673,19.261799c-13.214039,3.863663 -23.193529,15.183502 -25.005699,29.052002l70,0c-1.812172,-13.8685 -11.791656,-25.188339 -25.005699,-29.052002"/>
   <g id="Group">
    <g id="Group-31">
     <polygon points="206.07902097702026,107.81572723388672 274.7927932739258,107.81572723388672 274.7927932739258,39.00526830041781 206.07902097702026,39.00526830041781 " stroke-width="2.6" stroke="#FFFFFF" id="Stroke-1"/>
     <polygon points="206.05862164497375,59.86343765258789 274.77239990234375,59.86343765258789 274.77239990234375,39.00526830041781 206.05862164497375,39.00526830041781 " fill="#4A4C54" id="Fill-3"/>
     <polygon points="206.05862164497375,82.77409362792969 274.77239990234375,82.77409362792969 274.77239990234375,64.05657577514648 206.05862164497375,64.05657577514648 " fill="#4A4C54" id="Fill-4"/>
     <polygon points="206.05862164497375,107.81572723388672 274.77239990234375,107.81572723388672 274.77239990234375,86.97905731201172 206.05862164497375,86.97905731201172 " fill="#4A4C54" id="Fill-5"/>
     <g id="Group-30">
      <path fill="#FFFFFF" id="Fill-6" d="m218.744156,49.430161c0,1.257938 -1.018906,2.278267 -2.275085,2.278267c-1.257248,0 -2.276138,-1.020329 -2.276138,-2.278267c0,-1.25901 1.01889,-2.279343 2.276138,-2.279343c1.25618,0 2.275085,1.020332 2.275085,2.279343"/>
      <path stroke-width="5.2" stroke="#FFFFFF" id="Stroke-8" d="m225.661591,49.430161l38.780334,0"/>
      <path fill="#FFFFFF" id="Fill-10" d="m218.744156,73.367172c0,1.259018 -1.018906,2.279343 -2.275085,2.279343c-1.257248,0 -2.276138,-1.020325 -2.276138,-2.279343c0,-1.257942 1.01889,-2.278275 2.276138,-2.278275c1.25618,0 2.275085,1.020332 2.275085,2.278275"/>
      <path stroke-width="5.2" stroke="#FFFFFF" id="Stroke-12" d="m225.661591,73.367172l38.780334,0"/>
      <path fill="#FFFFFF" id="Fill-14" d="m218.744156,97.462868c0,1.257942 -1.018906,2.278267 -2.275085,2.278267c-1.257248,0 -2.276138,-1.020325 -2.276138,-2.278267c0,-1.259018 1.01889,-2.278267 2.276138,-2.278267c1.25618,0 2.275085,1.019249 2.275085,2.278267"/>
      <path stroke-width="5.2" stroke="#FFFFFF" id="Stroke-16" d="m225.661591,97.462868l38.780334,0"/>
     </g>
    </g>
   </g>
   <path fill="#000000" id="Identity-Provider" d="m174,133.444565l0,-10.974243l2.471558,0l0,10.974243l-2.471558,0zm8.554169,0.156784c-2.006134,0 -3.915985,-1.536392 -3.915985,-4.342667l0,-0.031357c0,-2.806274 1.877747,-4.342667 3.915985,-4.342667c1.299973,0 2.102432,0.58007 2.680191,1.254189l0,-4.138847l2.439468,0l0,11.444565l-2.439468,0l0,-1.207169c-0.593811,0.783875 -1.412323,1.363953 -2.680191,1.363953zm0.625916,-2.0224c1.139481,0 2.08638,-0.924973 2.08638,-2.320267l0,-0.031357c0,-1.395302 -0.946899,-2.320267 -2.08638,-2.320267c-1.139496,0 -2.102432,0.909294 -2.102432,2.320267l0,0.031357c0,1.395294 0.962936,2.320267 2.102432,2.320267zm10.752884,2.053757c-2.583893,0 -4.493744,-1.771561 -4.493744,-4.342667l0,-0.031357c0,-2.398659 1.749359,-4.374023 4.253006,-4.374023c2.872787,0 4.188812,2.179169 4.188812,4.562149c0,0.188126 -0.016037,0.407608 -0.032089,0.627106l-5.986313,0c0.240738,1.081741 1.011093,1.646133 2.102432,1.646133c0.818497,0 1.412323,-0.250839 2.08638,-0.862259l1.396271,1.207169c-0.80246,0.972 -1.957993,1.567749 -3.514755,1.567749zm-2.102432,-5.048157l3.675247,0c-0.14444,-1.066071 -0.786407,-1.787239 -1.813553,-1.787239c-1.011093,0 -1.669098,0.70549 -1.861694,1.787239zm7.864059,4.860016l0,-8.403122l2.439468,0l0,1.19149c0.561707,-0.70549 1.28392,-1.348274 2.519699,-1.348274c1.845642,0 2.920929,1.19149 2.920929,3.119827l0,5.440079l-2.439453,0l0,-4.687561c0,-1.128784 -0.54567,-1.708855 -1.476517,-1.708855c-0.930847,0 -1.524658,0.58007 -1.524658,1.708855l0,4.687561l-2.439468,0zm12.903473,0.141098c-1.492569,0 -2.503662,-0.580063 -2.503662,-2.524078l0,-3.982071l-1.027145,0l0,-2.038071l1.027145,0l0,-2.14782l2.439468,0l0,2.14782l2.022186,0l0,2.038071l-2.022186,0l0,3.590134c0,0.548721 0.240738,0.815231 0.786392,0.815231c0.449387,0 0.850616,-0.109741 1.20369,-0.297867l0,1.912659c-0.513565,0.297867 -1.107391,0.485992 -1.925888,0.485992zm3.803635,-9.4692l0,-2.116463l2.567856,0l0,2.116463l-2.567856,0zm0.064194,9.328102l0,-8.403122l2.439468,0l0,8.403122l-2.439468,0zm7.639374,0.141098c-1.492569,0 -2.503662,-0.580063 -2.503662,-2.524078l0,-3.982071l-1.027145,0l0,-2.038071l1.027145,0l0,-2.14782l2.439453,0l0,2.14782l2.022186,0l0,2.038071l-2.022186,0l0,3.590134c0,0.548721 0.240738,0.815231 0.786407,0.815231c0.449371,0 0.850601,-0.109741 1.20369,-0.297867l0,1.912659c-0.51358,0.297867 -1.107391,0.485992 -1.925888,0.485992zm7.527023,-2.821945l1.877731,-5.722275l2.535767,0l-3.306122,8.606934c-0.658005,1.708847 -1.364166,2.351624 -2.824631,2.351624c-0.882706,0 -1.54071,-0.219482 -2.166626,-0.580063l0.818497,-1.724533c0.320984,0.188141 0.722214,0.329239 1.043198,0.329239c0.417267,0 0.641953,-0.125427 0.850601,-0.548721l-3.370316,-8.434479l2.583908,0l1.957993,5.722275zm10.929428,2.680847l0,-10.974243l4.590042,0c2.680191,0 4.301147,1.552071 4.301147,3.793945l0,0.031364c0,2.539757 -2.022186,3.856667 -4.541885,3.856667l-1.877747,0l0,3.292267l-2.471558,0zm2.471558,-5.440079l1.957993,0c1.235779,0 1.957993,-0.721169 1.957993,-1.661819l0,-0.031357c0,-1.081749 -0.77037,-1.661812 -2.006149,-1.661812l-1.909836,0l0,3.354988zm7.992447,5.440079l0,-8.403122l2.439468,0l0,1.693153c0.497513,-1.160126 1.299973,-1.912643 2.7444,-1.849937l0,2.492722l-0.128418,0c-1.620941,0 -2.615982,0.956329 -2.615982,2.963043l0,3.104141l-2.439468,0zm10.68869,0.188141c-2.664154,0 -4.638184,-1.928345 -4.638184,-4.342667l0,-0.031357c0,-2.41433 1.990082,-4.374023 4.670288,-4.374023c2.664154,0 4.638184,1.928329 4.638184,4.342667l0,0.031357c0,2.414337 -1.990082,4.374023 -4.670288,4.374023zm0.032104,-2.053757c1.396271,0 2.230835,-1.0504 2.230835,-2.28891l0,-0.031357c0,-1.238525 -0.914825,-2.320274 -2.262939,-2.320274c-1.396271,0 -2.230804,1.050392 -2.230804,2.288918l0,0.031357c0,1.23851 0.914795,2.320267 2.262909,2.320267zm8.538116,1.928329l-3.386353,-8.465836l2.583893,0l1.925903,5.628204l1.941925,-5.628204l2.535767,0l-3.386353,8.465836l-2.214783,0zm7.061584,-9.390816l0,-2.116463l2.567871,0l0,2.116463l-2.567871,0zm0.064209,9.328102l0,-8.403122l2.439453,0l0,8.403122l-2.439453,0zm8.265289,0.156784c-2.006134,0 -3.915985,-1.536392 -3.915985,-4.342667l0,-0.031357c0,-2.806274 1.877747,-4.342667 3.915985,-4.342667c1.299957,0 2.102417,0.58007 2.680206,1.254189l0,-4.138847l2.439453,0l0,11.444565l-2.439453,0l0,-1.207169c-0.593842,0.783875 -1.412323,1.363953 -2.680206,1.363953zm0.625916,-2.0224c1.139465,0 2.086365,-0.924973 2.086365,-2.320267l0,-0.031357c0,-1.395302 -0.946899,-2.320267 -2.086365,-2.320267c-1.139496,0 -2.102448,0.909294 -2.102448,2.320267l0,0.031357c0,1.395294 0.962952,2.320267 2.102448,2.320267zm10.752899,2.053757c-2.583923,0 -4.493774,-1.771561 -4.493774,-4.342667l0,-0.031357c0,-2.398659 1.749359,-4.374023 4.253021,-4.374023c2.872803,0 4.188812,2.179169 4.188812,4.562149c0,0.188126 -0.016052,0.407608 -0.032104,0.627106l-5.986298,0c0.240723,1.081741 1.011078,1.646133 2.102417,1.646133c0.818512,0 1.412323,-0.250839 2.086395,-0.862259l1.396271,1.207169c-0.80246,0.972 -1.958008,1.567749 -3.51474,1.567749zm-2.102448,-5.048157l3.675232,0c-0.14444,-1.066071 -0.786407,-1.787239 -1.813538,-1.787239c-1.011078,0 -1.669098,0.70549 -1.861694,1.787239zm7.864044,4.860016l0,-8.403122l2.439484,0l0,1.693153c0.497498,-1.160126 1.299957,-1.912643 2.744385,-1.849937l0,2.492722l-0.128387,0c-1.620972,0 -2.615997,0.956329 -2.615997,2.963043l0,3.104141l-2.439484,0z"/>
   <use xlink:href="#path-1" stroke-dasharray="5" stroke-width="2" mask="url(#mask-2)" stroke="#494B54" id="Rectangle"/>
   <path fill-rule="nonzero" fill="#00A9E0" d="m239.679993,307.268585l0,-4.5l0,-0.5l1,0l0,0.5l0,4.5l4,0l-4.5,9l-4.5,-9l4,0zm1,-154.40921l0,4.909225l0,0.5l-1,0l0,-0.5l0,-4.909225l-4,0l4.5,-9l4.5,9l-4,0zm0,144.90921l0,0.5l-1,0l0,-0.5l0,-5l0,-0.5l1,0l0,0.5l0,5zm0,-10l0,0.5l-1,0l0,-0.5l0,-5l0,-0.5l1,0l0,0.5l0,5zm0,-10l0,0.5l-1,0l0,-0.5l0,-5l0,-0.5l1,0l0,0.5l0,5zm0,-10l0,0.5l-1,0l0,-0.5l0,-5l0,-0.5l1,0l0,0.5l0,5zm0,-10l0,0.5l-1,0l0,-0.5l0,-4.999985l0,-0.5l1,0l0,0.5l0,4.999985zm0,-9.999985l0,0.5l-1,0l0,-0.5l0,-5l0,-0.5l1,0l0,0.5l0,5zm0,-10l0,0.5l-1,0l0,-0.5l0,-5l0,-0.5l1,0l0,0.5l0,5zm0,-10l0,0.5l-1,0l0,-0.5l0,-5l0,-0.5l1,0l0,0.5l0,5zm0,-10l0,0.5l-1,0l0,-0.5l0,-5l0,-0.5l1,0l0,0.5l0,5zm0,-10l0,0.5l-1,0l0,-0.5l0,-5l0,-0.5l1,0l0,0.5l0,5zm0,-10l0,0.5l-1,0l0,-0.5l0,-5l0,-0.5l1,0l0,0.5l0,5zm0,-10l0,0.5l-1,0l0,-0.5l0,-5l0,-0.5l1,0l0,0.5l0,5zm0,-10l0,0.5l-1,0l0,-0.5l0,-5l0,-0.5l1,0l0,0.5l0,5zm0,-10l0,0.5l-1,0l0,-0.5l0,-5l0,-0.5l1,0l0,0.5l0,5z" id="Line"/>
   <rect height="40" width="99" y="208" x="188" fill="#FFFFFF" id="Rectangle"/>
   <path fill="#76787F" id="Trusted-Relationship" d="m216.58429,224.05481l0,-8.071396l-3.094452,0l0,-1.570206l7.917343,0l0,1.570206l-3.094452,0l0,8.071396l-1.728439,0zm5.436203,0l0,-7.272522l1.68663,0l0,1.639069c0.459976,-1.08812 1.310257,-1.831894 2.606583,-1.77681l0,1.763046l-0.097565,0c-1.477539,0 -2.509018,0.950378 -2.509018,2.878708l0,2.768509l-1.68663,0zm8.293701,0.15152c-1.658737,0 -2.620529,-1.101898 -2.620529,-2.796066l0,-4.627975l1.68663,0l0,4.132126c0,1.12944 0.571487,1.763031 1.575104,1.763031c0.975723,0 1.658737,-0.661148 1.658737,-1.790588l0,-4.104568l1.700562,0l0,7.272522l-1.700562,0l0,-1.12944c-0.473923,0.68869 -1.156937,1.28096 -2.299942,1.28096zm8.62825,-0.013779c-1.045425,0 -2.202362,-0.371887 -3.122345,-1.08812l0.752716,-1.129456c0.808456,0.59227 1.658737,0.895294 2.411438,0.895294c0.724838,0 1.143005,-0.303024 1.143005,-0.785095l0,-0.027542c0,-0.564728 -0.780594,-0.757568 -1.644806,-1.019257c-1.087234,-0.303024 -2.299927,-0.74379 -2.299927,-2.134933l0,-0.027542c0,-1.37738 1.156937,-2.217575 2.620529,-2.217575c0.919968,0 1.923584,0.316803 2.704163,0.826431l-0.669067,1.18454c-0.710892,-0.426987 -1.463608,-0.68869 -2.07692,-0.68869c-0.655136,0 -1.031479,0.303024 -1.031479,0.716232l0,0.027542c0,0.537186 0.794525,0.757553 1.658737,1.033035c1.073303,0.330566 2.285995,0.812653 2.285995,2.121155l0,0.027542c0,1.528885 -1.198761,2.286438 -2.73204,2.286438zm6.788284,-0.013779c-1.24057,0 -2.118729,-0.53717 -2.118729,-2.134918l0,-3.829102l-0.933914,0l0,-1.432465l0.933914,0l0,-1.997192l1.686615,0l0,1.997192l1.97934,0l0,1.432465l-1.97934,0l0,3.567398c0,0.647369 0.334549,0.909073 0.906036,0.909073c0.376358,0 0.710892,-0.082657 1.045425,-0.24794l0,1.363602c-0.418167,0.234161 -0.878159,0.371887 -1.519348,0.371887zm6.425888,0.041321c-2.132675,0 -3.777481,-1.52887 -3.777481,-3.773987l0,-0.027557c0,-2.079834 1.49147,-3.787766 3.596268,-3.787766c2.341751,0 3.526566,1.81813 3.526566,3.911728c0,0.15152 -0.013947,0.303024 -0.027878,0.468307l-5.408325,0c0.181198,1.18454 1.031479,1.845688 2.118729,1.845688c0.822388,0 1.407837,-0.303024 1.993271,-0.867752l0.98967,0.867752c-0.696945,0.826416 -1.658737,1.363586 -3.010818,1.363586zm-2.104797,-4.311172l3.777466,0c-0.111511,-1.074341 -0.752701,-1.914536 -1.867828,-1.914536c-1.031479,0 -1.756302,0.785095 -1.909637,1.914536zm10.189423,4.297409c-1.728455,0 -3.41507,-1.363602 -3.41507,-3.774002l0,-0.027542c0,-2.4104 1.658752,-3.774002 3.41507,-3.774002c1.212677,0 1.979309,0.59227 2.509003,1.28096l0,-3.911743l1.686615,0l0,10.05481l-1.686615,0l0,-1.212082c-0.54361,0.757553 -1.310272,1.363602 -2.509003,1.363602zm0.404205,-1.446243c1.129059,0 2.13269,-0.936615 2.13269,-2.327759l0,-0.027542c0,-1.404922 -1.003632,-2.327759 -2.13269,-2.327759c-1.156921,0 -2.118713,0.881516 -2.118713,2.327759l0,0.027542c0,1.404922 0.975739,2.327759 2.118713,2.327759zm-63.645447,17.036118l0,-9.641602l4.348969,0c1.226624,0 2.188416,0.358124 2.815674,0.964157c0.515747,0.523407 0.808456,1.239639 0.808456,2.079834l0,0.027542c0,1.583984 -0.961777,2.534378 -2.313873,2.920029l2.634476,3.65004l-2.035095,0l-2.397507,-3.360779l-2.146606,0l0,3.360779l-1.714493,0zm1.714493,-4.862122l2.509018,0c1.226639,0 2.007217,-0.633591 2.007217,-1.611526l0,-0.027542c0,-1.033035 -0.752701,-1.597748 -2.021149,-1.597748l-2.495087,0l0,3.236816zm11.4021,5.027405c-2.13266,0 -3.777466,-1.528885 -3.777466,-3.774002l0,-0.027542c0,-2.079834 1.49147,-3.787766 3.596268,-3.787766c2.341751,0 3.526566,1.81813 3.526566,3.911728c0,0.15152 -0.013947,0.303024 -0.027878,0.468307l-5.40834,0c0.181213,1.18454 1.031494,1.845673 2.118729,1.845673c0.822403,0 1.407837,-0.303009 1.993286,-0.867737l0.98967,0.867737c-0.69696,0.826431 -1.658752,1.363602 -3.010834,1.363602zm-2.104782,-4.311172l3.777466,0c-0.111511,-1.074341 -0.752701,-1.914551 -1.867828,-1.914551c-1.031479,0 -1.756317,0.78511 -1.909637,1.914551zm7.248276,4.145889l0,-10.05481l1.686615,0l0,10.05481l-1.686615,0zm6.007706,0.15152c-1.379959,0 -2.606598,-0.78511 -2.606598,-2.245117l0,-0.027557c0,-1.570206 1.24057,-2.341522 3.038712,-2.341522c0.822403,0 1.407837,0.123962 1.97934,0.303009l0,-0.179047c0,-1.033035 -0.641205,-1.583984 -1.826019,-1.583984c-0.822403,0 -1.435715,0.179062 -2.104782,0.454529l-0.446045,-1.308502c0.808456,-0.358109 1.602982,-0.59227 2.773849,-0.59227c1.101181,0 1.923584,0.289246 2.439331,0.812653c0.543625,0.523407 0.794525,1.294724 0.794525,2.245117l0,4.311172l-1.644806,0l0,-0.909058c-0.501801,0.59227 -1.268448,1.060577 -2.397507,1.060577zm0.473923,-1.212097c1.115128,0 1.965408,-0.633591 1.965408,-1.556427l0,-0.49585c-0.432114,-0.165283 -1.003616,-0.289246 -1.672684,-0.289246c-1.08725,0 -1.728439,0.454529 -1.728439,1.212082l0,0.027542c0,0.702469 0.627258,1.101898 1.435715,1.101898zm7.987045,1.18454c-1.24057,0 -2.118729,-0.53717 -2.118729,-2.134918l0,-3.829102l-0.933914,0l0,-1.432465l0.933914,0l0,-1.997192l1.68663,0l0,1.997192l1.979324,0l0,1.432465l-1.979324,0l0,3.567398c0,0.647369 0.334534,0.909058 0.906021,0.909058c0.376358,0 0.710892,-0.082642 1.045425,-0.247925l0,1.363602c-0.418167,0.234146 -0.878143,0.371887 -1.519348,0.371887zm3.289612,-8.512161l0,-1.583969l1.812057,0l0,1.583969l-1.812057,0zm0.069687,8.388199l0,-7.272522l1.686615,0l0,7.272522l-1.686615,0zm7.387665,0.165283c-2.244171,0 -3.902908,-1.694168 -3.902908,-3.760223l0,-0.027542c0,-2.079834 1.672668,-3.801544 3.930786,-3.801544c2.258118,0 3.91687,1.694168 3.91687,3.773987l0,0.027557c0,2.066055 -1.672684,3.787766 -3.944748,3.787766zm0.027878,-1.460007c1.366028,0 2.23024,-1.046814 2.23024,-2.300217l0,-0.027542c0,-1.28096 -0.933914,-2.341537 -2.258118,-2.341537c-1.352081,0 -2.216293,1.046799 -2.216293,2.31398l0,0.027557c0,1.267181 0.933914,2.327759 2.244171,2.327759zm5.631363,1.294724l0,-7.272522l1.686615,0l0,1.115677c0.473923,-0.674911 1.156937,-1.267181 2.299942,-1.267181c1.658737,0 2.620529,1.101898 2.620529,2.782288l0,4.641739l-1.686615,0l0,-4.132111c0,-1.129456 -0.571503,-1.77681 -1.575119,-1.77681c-0.975723,0 -1.658737,0.674911 -1.658737,1.804352l0,4.104568l-1.686615,0zm11.165146,0.137741c-1.045441,0 -2.202377,-0.371887 -3.122345,-1.08812l0.752701,-1.129456c0.808472,0.59227 1.658737,0.895294 2.411453,0.895294c0.724823,0 1.143005,-0.303024 1.143005,-0.785095l0,-0.027557c0,-0.564713 -0.780609,-0.757553 -1.644806,-1.019257c-1.08725,-0.303009 -2.299942,-0.743774 -2.299942,-2.134918l0,-0.027542c0,-1.37738 1.156937,-2.217575 2.620529,-2.217575c0.919983,0 1.923584,0.316788 2.704163,0.826416l-0.669067,1.18454c-0.710876,-0.426971 -1.463593,-0.688675 -2.076904,-0.688675c-0.655151,0 -1.031494,0.303024 -1.031494,0.716232l0,0.027542c0,0.53717 0.794525,0.757553 1.658752,1.033035c1.073303,0.330566 2.28598,0.812653 2.28598,2.121155l0,0.027542c0,1.528885 -1.198761,2.286438 -2.732025,2.286438zm4.46048,-0.137741l0,-10.05481l1.686615,0l0,3.897964c0.473907,-0.674911 1.156921,-1.267181 2.299927,-1.267181c1.658752,0 2.620544,1.101898 2.620544,2.782288l0,4.641739l-1.686646,0l0,-4.132111c0,-1.129456 -0.571472,-1.77681 -1.575104,-1.77681c-0.975708,0 -1.658722,0.674911 -1.658722,1.804352l0,4.104568l-1.686615,0zm8.670044,-8.388199l0,-1.583969l1.812073,0l0,1.583969l-1.812073,0zm0.069702,8.388199l0,-7.272522l1.686615,0l0,7.272522l-1.686615,0zm3.888977,2.203796l0,-9.476318l1.686615,0l0,1.212082c0.54361,-0.757553 1.310272,-1.363586 2.509033,-1.363586c1.728424,0 3.415039,1.349823 3.415039,3.773987l0,0.027557c0,2.4104 -1.672668,3.774002 -3.415039,3.774002c-1.226654,0 -1.993286,-0.606049 -2.509033,-1.28096l0,3.333237l-1.686615,0zm3.791412,-3.49852c1.156921,0 2.104767,-0.895294 2.104767,-2.327759l0,-0.027557c0,-1.404907 -0.961792,-2.327759 -2.104767,-2.327759c-1.143005,0 -2.146606,0.936615 -2.146606,2.327759l0,0.027557c0,1.391144 1.003601,2.327759 2.146606,2.327759z"/>
   <path fill-rule="nonzero" fill="#A4A5A9" d="m64.68,306.808594l0,-162.909225l0,-0.5l1,0l0,0.5l0,162.909225l4,0l-4.5,9l-4.5,-9l4,0z" id="Line"/>
   <rect height="25" width="99" y="210" x="16" fill="#FFFFFF" id="Rectangle"/>
   <path fill="#76787F" id="SAML" d="m50.036869,227c-1.479271,0 -2.87558,-0.513885 -4.036869,-1.555557l1.023041,-1.222214c0.92627,0.805542 1.86636,1.263885 3.055298,1.263885c1.05069,0 1.714291,-0.5 1.714291,-1.222229l0,-0.027771c0,-0.694443 -0.3871,-1.069443 -2.18433,-1.486115c-2.05991,-0.5 -3.221199,-1.111115 -3.221199,-2.902771l0,-0.027786c0,-1.666672 1.382481,-2.819443 3.30415,-2.819443c1.41013,0 2.529949,0.430557 3.51152,1.222229l-0.912449,1.291656c-0.870972,-0.652771 -1.741932,-1 -2.626732,-1c-0.995388,0 -1.576031,0.513885 -1.576031,1.152786l0,0.027771c0,0.75 0.44239,1.083328 2.30875,1.527786c2.046093,0.5 3.096783,1.236099 3.096783,2.847214l0,0.027786c0,1.819443 -1.423962,2.902771 -3.456223,2.902771zm4.423962,-0.138885l4.25806,-9.791672l1.576038,0l4.258064,9.791672l-1.797234,0l-0.981571,-2.347229l-4.576031,0l-0.995388,2.347229l-1.74194,0zm3.359447,-3.861115l3.331791,0l-1.67281,-3.888885l-1.658981,3.888885zm8.391705,3.861115l0,-9.722229l1.811058,0l2.944702,4.597229l2.94471,-4.597229l1.81105,0l0,9.722229l-1.700462,0l0,-6.972229l-3.055298,4.583344l-0.05529,0l-3.027649,-4.555557l0,6.944443l-1.672821,0zm12,0l0,-9.722229l1.70047,0l0,8.166672l5.087547,0l0,1.555557l-6.788017,0z"/>
   <g id="Group-37">
    <path fill="#03A5DE" id="Fill-1" d="m247.863205,442.410309c1.166992,-1.21701 2.792999,-1.972015 4.591995,-1.972015c2.389999,0 4.476013,1.333008 5.587006,3.312012c0.964996,-0.431 2.03299,-0.671021 3.156982,-0.671021c4.311005,0 7.807007,3.526001 7.807007,7.875c0,4.350006 -3.496002,7.875 -7.807007,7.875c-0.526001,0 -1.040985,-0.052979 -1.537994,-0.152985c-0.977997,1.743988 -2.841003,2.923004 -4.980988,2.923004c-0.895004,0 -1.742004,-0.207001 -2.497009,-0.575012c-0.98999,2.332001 -3.300995,3.968018 -5.992996,3.968018c-2.804001,0 -5.193008,-1.774017 -6.110001,-4.262024c-0.401001,0.085022 -0.817001,0.129028 -1.242004,0.129028c-3.337997,0 -6.043991,-2.734009 -6.043991,-6.106018c0,-2.260986 1.214996,-4.234985 3.021988,-5.290009c-0.371994,-0.856995 -0.577988,-1.800995 -0.577988,-2.793976c0,-3.879028 3.147995,-7.024017 7.03299,-7.024017c2.280014,0 4.307007,1.084991 5.59201,2.765015"/>
    <path fill="#FFFFFF" id="Fill-3" d="m238.039001,452.789703c-0.02301,0.059998 0.007996,0.071991 0.014999,0.082001c0.068008,0.049011 0.137009,0.084991 0.207001,0.125c0.369003,0.195984 0.718002,0.252991 1.082993,0.252991c0.743011,0 1.20401,-0.394989 1.20401,-1.031006l0,-0.011993c0,-0.587982 -0.520996,-0.802002 -1.009003,-0.957001l-0.063004,-0.019989c-0.369003,-0.119995 -0.686996,-0.222992 -0.686996,-0.464996l0,-0.013c0,-0.207001 0.186005,-0.360016 0.473999,-0.360016c0.320007,0 0.699005,0.106018 0.942993,0.242004c0,0 0.072998,0.04599 0.098999,-0.023987c0.014008,-0.037994 0.138,-0.370026 0.151001,-0.406006c0.014008,-0.039001 -0.009995,-0.069 -0.035995,-0.084015c-0.279007,-0.169983 -0.664993,-0.28598 -1.065002,-0.28598l-0.072998,0.001007c-0.681,0 -1.154999,0.41098 -1.154999,0.998993l0,0.013c0,0.618988 0.522995,0.820984 1.013992,0.960999l0.07901,0.023987c0.358002,0.110016 0.666,0.205017 0.666,0.455994l0,0.013c0,0.230011 -0.201004,0.401001 -0.522995,0.401001c-0.126007,0 -0.526001,-0.001984 -0.957001,-0.274994c-0.053009,-0.031006 -0.082001,-0.053009 -0.123001,-0.076996c-0.021011,-0.014008 -0.074005,-0.036011 -0.098007,0.03299l-0.145996,0.407013z"/>
    <path fill="#FFFFFF" id="Fill-5" d="m248.913498,452.789703c-0.022995,0.059998 0.008011,0.071991 0.014999,0.082001c0.067993,0.049011 0.136993,0.084991 0.207001,0.125c0.369003,0.195984 0.718002,0.252991 1.083008,0.252991c0.742996,0 1.203995,-0.394989 1.203995,-1.031006l0,-0.011993c0,-0.587982 -0.520996,-0.802002 -1.009003,-0.957001l-0.063995,-0.019989c-0.367996,-0.119995 -0.686005,-0.222992 -0.686005,-0.464996l0,-0.013c0,-0.207001 0.186005,-0.360016 0.473999,-0.360016c0.320007,0 0.699005,0.106018 0.943008,0.242004c0,0 0.072998,0.04599 0.098999,-0.023987c0.013992,-0.037994 0.138,-0.370026 0.151001,-0.406006c0.013992,-0.039001 -0.011002,-0.069 -0.036011,-0.084015c-0.278992,-0.169983 -0.664993,-0.28598 -1.065002,-0.28598l-0.072998,0.001007c-0.681,0 -1.155991,0.41098 -1.155991,0.998993l0,0.013c0,0.618988 0.524994,0.820984 1.014999,0.960999l0.078995,0.023987c0.358002,0.110016 0.666,0.205017 0.666,0.455994l0,0.013c0,0.230011 -0.200989,0.401001 -0.524002,0.401001c-0.125,0 -0.524002,-0.001984 -0.955994,-0.274994c-0.052994,-0.031006 -0.083008,-0.052002 -0.123001,-0.076996c-0.013,-0.009003 -0.076004,-0.03299 -0.097992,0.03299l-0.146011,0.407013z"/>
    <path fill="#FFFFFF" id="Fill-7" d="m256.336792,451.54361c0,0.358978 -0.066986,0.642975 -0.199005,0.842987c-0.130981,0.197998 -0.327988,0.295013 -0.602982,0.295013c-0.276001,0 -0.472,-0.097015 -0.600998,-0.295013c-0.131012,-0.200012 -0.197006,-0.484009 -0.197006,-0.842987c0,-0.358002 0.065994,-0.641998 0.195999,-0.839996c0.130005,-0.196014 0.326004,-0.291016 0.602005,-0.291016c0.274994,0 0.472,0.095001 0.602982,0.291016c0.132019,0.197998 0.199005,0.481995 0.199005,0.839996m0.619995,-0.666016c-0.059998,-0.205994 -0.155975,-0.388 -0.281982,-0.539001c-0.126007,-0.151001 -0.286011,-0.273987 -0.476013,-0.360992c-0.190002,-0.088989 -0.412994,-0.134003 -0.663986,-0.134003c-0.251999,0 -0.475998,0.045013 -0.666,0.134003c-0.189011,0.087006 -0.348999,0.209991 -0.475006,0.362c-0.126999,0.151001 -0.222,0.332001 -0.28299,0.537994c-0.060013,0.205017 -0.091003,0.429016 -0.091003,0.666016c0,0.238007 0.030991,0.462006 0.091003,0.666992c0.060989,0.204987 0.155991,0.385986 0.28299,0.537994c0.126007,0.152008 0.285995,0.27301 0.475998,0.359009c0.189011,0.085999 0.41301,0.130005 0.665009,0.130005c0.250992,0 0.473984,-0.044006 0.663986,-0.130005c0.188995,-0.085999 0.348999,-0.207001 0.476013,-0.359009c0.126007,-0.151001 0.221985,-0.332001 0.281982,-0.537994c0.061005,-0.205994 0.09201,-0.428986 0.09201,-0.666992c0,-0.237 -0.031006,-0.460999 -0.09201,-0.666016"/>
    <path fill="#FFFFFF" id="Fill-9" d="m262.048798,452.585083c-0.019989,-0.059998 -0.07901,-0.036987 -0.07901,-0.036987c-0.089996,0.035004 -0.185974,0.06601 -0.289001,0.082001c-0.102997,0.016998 -0.21698,0.024017 -0.339996,0.024017c-0.298981,0 -0.537994,-0.08902 -0.708984,-0.265015c-0.170013,-0.177002 -0.266998,-0.462006 -0.266022,-0.847992c0.001007,-0.351013 0.086029,-0.615021 0.238007,-0.81601c0.151001,-0.200989 0.382019,-0.303009 0.688019,-0.303009c0.255981,0 0.450989,0.029999 0.654999,0.093018c0,0 0.048981,0.022003 0.071991,-0.042023c0.054993,-0.15097 0.095001,-0.257996 0.153015,-0.423981c0.016998,-0.046997 -0.024017,-0.066986 -0.039001,-0.072998c-0.080017,-0.031006 -0.27002,-0.083008 -0.414001,-0.104004c-0.132996,-0.020996 -0.290009,-0.032013 -0.46402,-0.032013c-0.260986,0 -0.492981,0.045013 -0.690979,0.134003c-0.199005,0.088013 -0.367004,0.209015 -0.5,0.360992c-0.133026,0.152008 -0.234009,0.333008 -0.301025,0.539001c-0.067993,0.205017 -0.10199,0.429016 -0.10199,0.66803c0,0.513977 0.139008,0.928986 0.412994,1.232971c0.275024,0.30603 0.686005,0.460999 1.223999,0.460999c0.317993,0 0.644012,-0.064972 0.878021,-0.155975c0,0 0.044983,-0.022003 0.024994,-0.075012l-0.152008,-0.420013z"/>
    <path fill="#FFFFFF" id="Fill-11" d="m263.133698,451.199402c0.029999,-0.200012 0.084015,-0.365997 0.170013,-0.494995c0.127991,-0.196014 0.323975,-0.304993 0.599976,-0.304993c0.275024,0 0.457001,0.108978 0.587006,0.304993c0.087006,0.130005 0.125,0.302002 0.140015,0.494995l-1.497009,0zm2.087006,-0.437988c-0.052002,-0.200012 -0.183014,-0.400024 -0.268005,-0.492004c-0.13501,-0.145996 -0.268005,-0.247009 -0.398987,-0.304016c-0.170013,-0.072998 -0.376007,-0.121002 -0.601013,-0.121002c-0.261993,0 -0.5,0.042999 -0.692993,0.134003c-0.192993,0.091003 -0.355011,0.214996 -0.483002,0.369019c-0.127014,0.153992 -0.222992,0.336975 -0.283997,0.544983c-0.062012,0.205994 -0.09201,0.432007 -0.09201,0.669006c0,0.242004 0.031006,0.467987 0.095001,0.67099c0.063995,0.20401 0.166016,0.384003 0.304016,0.53302c0.13797,0.149994 0.314972,0.266998 0.527985,0.349976c0.210999,0.082001 0.468018,0.124023 0.761993,0.123016c0.606018,-0.002014 0.925018,-0.136993 1.057007,-0.209991c0.02301,-0.013 0.045013,-0.036011 0.018005,-0.100006l-0.138,-0.38501c-0.020996,-0.056 -0.07901,-0.036011 -0.07901,-0.036011c-0.149994,0.05603 -0.362976,0.156006 -0.860992,0.155029c-0.325989,-0.001007 -0.566986,-0.096008 -0.717987,-0.247009c-0.155029,-0.153015 -0.232025,-0.378998 -0.245026,-0.697021l2.098999,0.001007c0,0 0.055023,0 0.061005,-0.054993c0.002014,-0.022003 0.072021,-0.431 -0.062988,-0.902985z"/>
    <path fill="#FFFFFF" id="Fill-13" d="m246.324097,451.199402c0.029999,-0.200012 0.084,-0.365997 0.169006,-0.494995c0.128998,-0.196014 0.324997,-0.304993 0.600998,-0.304993c0.274994,0 0.457001,0.108978 0.587997,0.304993c0.085999,0.130005 0.123993,0.302002 0.139008,0.494995l-1.497009,0zm2.087006,-0.437988c-0.052002,-0.200012 -0.182999,-0.400024 -0.268005,-0.492004c-0.134995,-0.145996 -0.266998,-0.247009 -0.399002,-0.304016c-0.17099,-0.072998 -0.375992,-0.121002 -0.600998,-0.121002c-0.261993,0 -0.5,0.042999 -0.692993,0.134003c-0.193008,0.091003 -0.355011,0.214996 -0.483002,0.369019c-0.126999,0.153992 -0.223007,0.336975 -0.285004,0.544983c-0.061005,0.205994 -0.091003,0.432007 -0.091003,0.669006c0,0.242004 0.031006,0.467987 0.095001,0.67099c0.063995,0.20401 0.166,0.384003 0.304001,0.53302c0.138,0.149994 0.315002,0.266998 0.527008,0.349976c0.21199,0.082001 0.468994,0.124023 0.763,0.123016c0.606003,-0.002014 0.925003,-0.136993 1.056992,-0.209991c0.02301,-0.013 0.044998,-0.036011 0.018005,-0.100006l-0.138,-0.38501c-0.020996,-0.056 -0.07901,-0.036011 -0.07901,-0.036011c-0.149994,0.05603 -0.362991,0.156006 -0.860992,0.155029c-0.326004,-0.001007 -0.567001,-0.096008 -0.718994,-0.247009c-0.154007,-0.153015 -0.231003,-0.378998 -0.244003,-0.697021l2.098999,0.001007c0,0 0.055008,0 0.060989,-0.054993c0.002014,-0.022003 0.072006,-0.431 -0.062988,-0.902985z"/>
    <path fill="#FFFFFF" id="Fill-15" d="m241.787003,452.573914c-0.082001,-0.065002 -0.093002,-0.082001 -0.121002,-0.125c-0.042007,-0.064026 -0.063004,-0.156006 -0.063004,-0.272003c0,-0.184998 0.061005,-0.318024 0.187012,-0.407013c0,0 0.181992,-0.156982 0.608994,-0.152008c0.300995,0.003998 0.569992,0.049011 0.569992,0.049011l0,0.95401c0,0 -0.265991,0.056976 -0.566986,0.075989c-0.427002,0.024994 -0.616013,-0.122986 -0.616013,-0.122986m0.836014,-1.475006c-0.085007,-0.006012 -0.195007,-0.009003 -0.327011,-0.009003c-0.179993,0 -0.353989,0.022003 -0.516998,0.065979c-0.164001,0.044006 -0.311996,0.112 -0.438004,0.203003c-0.127991,0.091003 -0.229996,0.208008 -0.304993,0.346008c-0.074005,0.139008 -0.112,0.302002 -0.112,0.484009c0,0.186005 0.031998,0.346985 0.095993,0.479004c0.064011,0.132996 0.156006,0.242981 0.274002,0.328003c0.117004,0.085999 0.261002,0.14798 0.427002,0.185974c0.164993,0.038025 0.35199,0.057007 0.556,0.057007c0.216003,0 0.429993,-0.018982 0.638,-0.053986c0.205994,-0.035004 0.458008,-0.085999 0.528,-0.10202c0.069992,-0.015991 0.147003,-0.036987 0.147003,-0.036987c0.051987,-0.014008 0.047989,-0.069 0.047989,-0.069l-0.000992,-1.920013c0,-0.42099 -0.112,-0.732971 -0.332993,-0.925995c-0.221008,-0.192993 -0.545013,-0.289978 -0.964005,-0.289978c-0.158005,0 -0.410995,0.020996 -0.563004,0.050995c0,0 -0.458008,0.088989 -0.647003,0.237c0,0 -0.041,0.026001 -0.018997,0.083984l0.149002,0.399017c0.018005,0.050995 0.069,0.033997 0.069,0.033997c0,0 0.015991,-0.006989 0.035004,-0.018005c0.402985,-0.218994 0.914001,-0.212982 0.914001,-0.212982c0.22699,0 0.401001,0.046997 0.518997,0.135986c0.113998,0.088013 0.171997,0.220001 0.171997,0.5l0,0.088989c-0.180008,-0.026001 -0.345993,-0.040985 -0.345993,-0.040985"/>
    <path fill="#FFFFFF" id="Fill-17" d="m259.551208,450.0177c0.015991,-0.046997 -0.018005,-0.070007 -0.031006,-0.075989c-0.036011,-0.013 -0.214996,-0.051025 -0.35199,-0.059998c-0.264008,-0.016022 -0.410004,0.027985 -0.541016,0.086975c-0.130981,0.059021 -0.274994,0.154022 -0.35498,0.262024l0,-0.256012c0,-0.035004 -0.025024,-0.062988 -0.060028,-0.062988l-0.537994,0c-0.036011,0 -0.059998,0.027985 -0.059998,0.062988l0,3.131012c0,0.03598 0.027008,0.062988 0.062988,0.062988l0.552002,0c0.035004,0 0.063019,-0.027008 0.063019,-0.062988l0,-1.564026c0,-0.209991 0.02298,-0.419983 0.070007,-0.550995c0.044983,-0.130005 0.105988,-0.233978 0.182983,-0.307983c0.076996,-0.075012 0.164001,-0.127014 0.26001,-0.156006c0.097992,-0.029999 0.204987,-0.040009 0.281006,-0.040009c0.109985,0 0.22998,0.028992 0.22998,0.028992c0.041016,0.003021 0.063995,-0.020996 0.078003,-0.057983c0.035004,-0.095001 0.138,-0.382996 0.157013,-0.440002"/>
    <path fill="#FFFFFF" id="Fill-19" d="m254.375397,448.566589c-0.067001,-0.020996 -0.127991,-0.034973 -0.207993,-0.048981c-0.081009,-0.015015 -0.17601,-0.022003 -0.285004,-0.022003c-0.380005,0 -0.677994,0.106995 -0.888992,0.319c-0.208008,0.209991 -0.350006,0.531006 -0.422012,0.951996l-0.024994,0.141998l-0.477005,0c0,0 -0.057999,-0.002991 -0.069992,0.061005l-0.078003,0.436005c-0.005997,0.041992 0.011993,0.067993 0.067993,0.067993l0.464005,0l-0.471008,2.626984c-0.036987,0.210999 -0.078995,0.38501 -0.125992,0.517029c-0.044998,0.130981 -0.089996,0.227997 -0.145996,0.298981c-0.054001,0.067993 -0.104004,0.118988 -0.192001,0.14801c-0.072006,0.023987 -0.156006,0.035004 -0.247009,0.035004c-0.049988,0 -0.117996,-0.007996 -0.167999,-0.018005c-0.049988,-0.01001 -0.075989,-0.020996 -0.113998,-0.036011c0,0 -0.054001,-0.020996 -0.074997,0.03302c-0.018005,0.044983 -0.140991,0.384979 -0.156006,0.427002c-0.014984,0.040985 0.006012,0.073975 0.033005,0.082977c0.061005,0.022003 0.10701,0.037018 0.190994,0.056c0.117004,0.028015 0.216003,0.028992 0.308014,0.028992c0.192993,0 0.368988,-0.026001 0.514999,-0.078979c0.146988,-0.053009 0.274994,-0.145996 0.388,-0.270996c0.120987,-0.13501 0.19899,-0.277008 0.271988,-0.468994c0.072998,-0.192017 0.13501,-0.429016 0.184998,-0.705017l0.473007,-2.675995l0.690994,0c0,0 0.059006,0.001984 0.070007,-0.061005l0.078003,-0.437012c0.005997,-0.040985 -0.011993,-0.066986 -0.067993,-0.066986l-0.671005,0c0.003998,-0.014984 0.033997,-0.251984 0.110992,-0.472992c0.033005,-0.096008 0.095001,-0.171997 0.147003,-0.223999c0.050995,-0.052002 0.111008,-0.08902 0.175995,-0.110016c0.067001,-0.020996 0.142014,-0.031982 0.225006,-0.031982c0.063004,0 0.125,0.006989 0.173004,0.016998c0.064987,0.013977 0.089996,0.020996 0.106995,0.026001c0.068008,0.020996 0.076996,0.000977 0.091003,-0.032013l0.159988,-0.44101c0.017014,-0.046997 -0.022995,-0.066986 -0.037994,-0.072998"/>
    <path fill="#FFFFFF" id="Fill-21" d="m244.998505,453.10611c0,0.035004 -0.025009,0.062988 -0.059998,0.062988l-0.557007,0c-0.035004,0 -0.059998,-0.027985 -0.059998,-0.062988l0,-4.480011c0,-0.035004 0.024994,-0.062988 0.059998,-0.062988l0.557007,0c0.034988,0 0.059998,0.027985 0.059998,0.062988l0,4.480011z"/>
    <path fill="#4A4C54" id="Fill-23" d="m228.975998,452.859497c0.341995,-1.789001 1.156998,-3.451996 2.347,-4.807983c-0.056,-0.455017 -0.084991,-0.917023 -0.084991,-1.382019c0,-6.078979 4.94899,-11.023987 11.03299,-11.023987c2.139008,0 4.175995,0.60199 5.917007,1.710999c1.322998,-0.60199 2.768997,-0.917999 4.266998,-0.917999c2.632004,0 5.133011,1.014008 7.029984,2.764008c0.564026,-0.082031 1.136017,-0.123016 1.71402,-0.123016c2.817993,0 5.404999,1 7.436981,2.662018c0.233032,-1.025024 0.368011,-2.087006 0.368011,-3.183014c0,-5.710999 -3.348999,-10.639008 -8.190002,-12.931c0.470001,-1.196014 0.730988,-2.497009 0.730988,-3.860992c0,-5.838013 -4.733978,-10.572021 -10.571991,-10.572021c-1.093994,0 -2.148987,0.166016 -3.140991,0.475006c-2.367004,-6.225983 -8.386993,-10.652008 -15.442993,-10.652008c-9.124008,0 -16.520004,7.396027 -16.520004,16.52002c0,0.709991 0.048996,1.406982 0.136002,2.093994c-6.434998,2.485016 -11.001007,8.726013 -11.001007,16.037994c0,9.455994 7.636002,17.126007 17.076996,17.187012l0,0.002991l6.895004,0z"/>
    <g id="Group-27">
     <mask fill="white" id="mask-4">
      <use id="svg_2" xlink:href="#path-3"/>
     </mask>
     <g id="Clip-26"/>
     <path mask="url(#mask-4)" fill="#4A4C54" id="Fill-25" d="m204.010193,433.004974c0,0.002014 -0.001999,0.005005 -0.00499,0.005005c-0.003006,0 -0.005005,-0.002991 -0.005005,-0.005005c0,-0.002991 0.001999,-0.004974 0.005005,-0.004974c0.002991,0 0.00499,0.001984 0.00499,0.004974"/>
    </g>
    <g id="Group-30">
     <mask fill="white" id="mask-6">
      <use id="svg_3" xlink:href="#path-5"/>
     </mask>
     <g id="Clip-29"/>
     <path mask="url(#mask-6)" fill="#4A4C54" id="Fill-28" d="m270.009705,433.009888c0,0.002991 -0.002014,0.005005 -0.005005,0.005005c-0.002014,0 -0.005005,-0.002014 -0.005005,-0.005005c0,-0.002991 0.002991,-0.005005 0.005005,-0.005005c0.002991,0 0.005005,0.002014 0.005005,0.005005"/>
    </g>
    <g id="Group-33">
     <mask fill="white" id="mask-8">
      <use id="svg_4" xlink:href="#path-7"/>
     </mask>
     <g id="Clip-32"/>
     <path mask="url(#mask-8)" fill="#4A4C54" id="Fill-31" d="m236.897903,466.005005c0,0.002014 -0.001999,0.005005 -0.005005,0.005005c-0.003006,0 -0.005005,-0.002991 -0.005005,-0.005005c0,-0.002991 0.001999,-0.005005 0.005005,-0.005005c0.003006,0 0.005005,0.002014 0.005005,0.005005"/>
    </g>
    <g id="Group-36">
     <mask fill="white" id="mask-10">
      <use id="svg_5" xlink:href="#path-9"/>
     </mask>
     <g id="Clip-35"/>
     <path mask="url(#mask-10)" fill="#4A4C54" id="Fill-34" d="m236.892502,400.004974c0,0.003021 -0.001999,0.005005 -0.005005,0.005005c-0.002991,0 -0.00499,-0.001984 -0.00499,-0.005005c0,-0.002991 0.001999,-0.004974 0.00499,-0.004974c0.003006,0 0.005005,0.001984 0.005005,0.004974"/>
    </g>
   </g>
   <g id="Group-17">
    <path fill="#4A4C54" id="Fill-1" d="m166.322205,423.893188l0,-8.031982l0,-2.764008l2.585999,-0.97699l13.949997,-5.270996l1.322006,-0.5l1.343994,0.441986l6.457001,2.128998c-0.251999,-5.423004 -3.516006,-10.057983 -8.165009,-12.259003c0.470001,-1.195984 0.731003,-2.497009 0.731003,-3.860992c0,-5.838013 -4.732986,-10.571991 -10.571991,-10.571991c-1.094009,0 -2.149002,0.166992 -3.141006,0.474976c-2.367004,-6.225983 -8.386993,-10.651978 -15.444,-10.651978c-9.123001,0 -16.520004,7.395996 -16.520004,16.519989c0,0.709991 0.050003,1.407013 0.137009,2.093994c-6.434998,2.485016 -11.001007,8.726013 -11.001007,16.037994c0,9.456024 7.63501,17.127014 17.077011,17.188019l0,0.001984l21.238998,0z"/>
    <polygon points="192.00430297851562,413.12860107421875 192.00430297851562,433.5186004638672 184.27429962158203,435.95860290527344 170.32429885864258,431.0786018371582 184.35430145263672,432.8685989379883 184.35430145263672,415.0085983276367 175.31430053710938,417.04859924316406 175.31430053710938,429.03860092163086 170.32429885864258,431.0786018371582 170.32429885864258,415.8485984802246 184.27429962158203,410.5786018371582 " fill="#E24126" id="Fill-3"/>
    <g id="Group-7">
     <mask fill="white" id="mask-12">
      <use id="svg_6" xlink:href="#path-11"/>
     </mask>
     <g id="Clip-6"/>
     <path mask="url(#mask-12)" fill="#4A4C54" id="Fill-5" d="m127.010101,404.004974c0,0.002014 -0.001999,0.005005 -0.005005,0.005005c-0.002998,0 -0.004997,-0.002991 -0.004997,-0.005005c0,-0.002991 0.001999,-0.004974 0.004997,-0.004974c0.003006,0 0.005005,0.001984 0.005005,0.004974"/>
    </g>
    <g id="Group-10">
     <mask fill="white" id="mask-14">
      <use id="svg_7" xlink:href="#path-13"/>
     </mask>
     <g id="Clip-9"/>
     <path mask="url(#mask-14)" fill="#4A4C54" id="Fill-8" d="m193.010101,404.009888c0,0.002991 -0.001999,0.005005 -0.005005,0.005005c-0.002991,0 -0.005005,-0.002014 -0.005005,-0.005005c0,-0.002991 0.002014,-0.005005 0.005005,-0.005005c0.003006,0 0.005005,0.002014 0.005005,0.005005"/>
    </g>
    <g id="Group-13">
     <mask fill="white" id="mask-16">
      <use id="svg_8" xlink:href="#path-15"/>
     </mask>
     <g id="Clip-12"/>
     <path mask="url(#mask-16)" fill="#4A4C54" id="Fill-11" d="m159.897797,437.005005c0,0.002014 -0.001999,0.005005 -0.005005,0.005005c-0.002991,0 -0.00499,-0.002991 -0.00499,-0.005005c0,-0.002991 0.001999,-0.005005 0.00499,-0.005005c0.003006,0 0.005005,0.002014 0.005005,0.005005"/>
    </g>
    <g id="Group-16">
     <mask fill="white" id="mask-18">
      <use id="svg_9" xlink:href="#path-17"/>
     </mask>
     <g id="Clip-15"/>
     <path mask="url(#mask-18)" fill="#4A4C54" id="Fill-14" d="m159.892502,371.004974c0,0.003021 -0.001999,0.005005 -0.005005,0.005005c-0.001999,0 -0.00499,-0.001984 -0.00499,-0.005005c0,-0.002991 0.002991,-0.004974 0.00499,-0.004974c0.003006,0 0.005005,0.001984 0.005005,0.004974"/>
    </g>
   </g>
   <g id="Group-25">
    <path fill="#FFFFFF" id="Fill-1" d="m100.670197,440.279388c-3.095001,1.060028 -5.729996,3.375 -7.190994,6.300018c-0.509003,1.007996 -0.880997,2.083984 -1.104004,3.190979c-0.560997,2.757019 -0.169998,5.697021 1.102005,8.208008c0.825996,1.640015 2.011993,3.097015 3.448997,4.239014c1.355995,1.082001 2.937004,1.880981 4.612999,2.326996c2.115005,0.566986 4.365997,0.553986 6.494995,0.069c1.924004,-0.442017 3.744003,-1.362 5.197006,-2.70401c1.535995,-1.41098 2.631996,-3.270996 3.211998,-5.269989c0.633003,-2.179993 0.720001,-4.507019 0.322998,-6.739014c-3.982002,-0.001984 -7.963997,-0.000977 -11.945992,-0.000977c0,1.651978 -0.002007,3.302979 0.000992,4.954987c2.306,-0.001007 4.612,-0.001007 6.917999,0c-0.266998,1.582001 -1.207993,3.028992 -2.541992,3.92099c-0.838005,0.564026 -1.80101,0.929016 -2.795006,1.104004c-1,0.170013 -2.031998,0.192017 -3.028999,-0.01001c-1.014999,-0.201996 -1.981995,-0.625 -2.826996,-1.219971c-1.350006,-0.949005 -2.380005,-2.337006 -2.909004,-3.89801c-0.541,-1.588989 -0.544998,-3.356995 0.001999,-4.944c0.379997,-1.118988 1.012001,-2.152008 1.843002,-2.993011c1.023994,-1.048981 2.355995,-1.798981 3.791,-2.105988c1.228996,-0.261993 2.523994,-0.212006 3.726997,0.152008c1.023003,0.309998 1.964996,0.870972 2.737,1.607971c0.781006,-0.77597 1.557007,-1.556976 2.335999,-2.333984c0.409004,-0.417999 0.838005,-0.819 1.234009,-1.248993c-1.183006,-1.093994 -2.570007,-1.975006 -4.085007,-2.531006c-2.729004,-1.003998 -5.805,-1.024994 -8.552002,-0.075012"/>
    <path fill="#E74535" id="Fill-3" d="m100.670197,440.279388c2.747002,-0.949982 5.822998,-0.928986 8.552002,0.075012c1.514999,0.556 2.902,1.437012 4.085007,2.531006c-0.396004,0.429993 -0.825005,0.830994 -1.234009,1.248993c-0.778992,0.777008 -1.554993,1.558014 -2.335999,2.333984c-0.772003,-0.737 -1.713997,-1.297974 -2.737,-1.607971c-1.203003,-0.364014 -2.498001,-0.414001 -3.726997,-0.152008c-1.435005,0.307007 -2.767006,1.057007 -3.791,2.105988c-0.831001,0.841003 -1.463005,1.874023 -1.843002,2.993011c-1.387001,-1.076019 -2.773003,-2.153015 -4.159996,-3.227997c1.460999,-2.925018 4.095993,-5.23999 7.190994,-6.300018"/>
    <path fill="#F4B719" id="Fill-5" d="m92.375198,449.770203c0.223007,-1.106995 0.595001,-2.183014 1.104004,-3.19101c1.386993,1.076019 2.772995,2.152008 4.159996,3.227997c-0.546997,1.588013 -0.542999,3.355011 -0.001999,4.944c-1.387001,1.076019 -2.771996,2.153015 -4.159996,3.22702c-1.272003,-2.511017 -1.663002,-5.451019 -1.102005,-8.208008"/>
    <path fill="#537EBE" id="Fill-7" d="m104.820099,449.899597c3.982002,0 7.964005,-0.001007 11.945999,0c0.397003,2.231995 0.310005,4.559998 -0.322998,6.73999c-0.580002,1.999023 -1.675995,3.859009 -3.212006,5.27002c-1.342995,-1.046021 -2.690994,-2.087006 -4.033997,-3.13501c1.334,-0.890991 2.275002,-2.338013 2.542007,-3.919983c-2.306,-0.001007 -4.612,-0.001007 -6.918007,0c-0.002998,-1.652008 -0.000999,-3.303009 -0.000999,-4.955017"/>
    <path fill="#32A54E" id="Fill-9" d="m93.477295,457.978699c1.388,-1.074005 2.77301,-2.152008 4.160004,-3.227997c0.528,1.561981 1.559006,2.949982 2.908997,3.89801c0.845001,0.595978 1.812004,1.017975 2.827003,1.220978c0.997002,0.202026 2.028999,0.180023 3.028999,0.009003c0.993004,-0.173981 1.957001,-0.540009 2.794998,-1.104004c1.343002,1.048004 2.69101,2.08902 4.034004,3.13501c-1.452995,1.34201 -3.274002,2.261017 -5.196999,2.70401c-2.128998,0.484985 -4.380005,0.497009 -6.495003,-0.070007c-1.676003,-0.445007 -3.256996,-1.244019 -4.612999,-2.325989c-1.436996,-1.142029 -2.623001,-2.598999 -3.449005,-4.239014"/>
    <path fill="#4A4C54" id="Fill-11" d="m88.070099,452.878601c-0.046997,-1.303009 0.050003,-2.613007 0.311996,-3.898987c0.294006,-1.460999 0.783005,-2.875 1.445007,-4.187012c1.934998,-3.873993 5.388992,-6.89801 9.461998,-8.292999c1.756996,-0.608002 3.601997,-0.916016 5.484001,-0.916016c1.987,0 3.923996,0.34201 5.754997,1.016022c1.982002,0.727997 3.806999,1.85498 5.423004,3.349976l0.868996,0.805023c0.109001,-0.712006 0.183998,-1.434998 0.183998,-2.177002c0,-5.712006 -3.349998,-10.639008 -8.189995,-12.931c0.470001,-1.197021 0.731003,-2.498016 0.731003,-3.860992c0,-5.83902 -4.733002,-10.572021 -10.572006,-10.572021c-1.093994,0 -2.149002,0.166016 -3.140999,0.475006c-2.366997,-6.226013 -8.387001,-10.652008 -15.444,-10.652008c-9.123001,0 -16.52,7.395996 -16.52,16.52002c0,0.709991 0.049999,1.406982 0.136997,2.092987c-6.434998,2.485992 -11.000996,8.72699 -11.000996,16.037994c0,9.457001 7.634998,17.127014 17.077,17.188019l0,0.002991l17.988998,0z"/>
    <g id="Group-15">
     <mask fill="white" id="mask-20">
      <use id="svg_10" xlink:href="#path-19"/>
     </mask>
     <g id="Clip-14"/>
     <path mask="url(#mask-20)" fill="#4A4C54" id="Fill-13" d="m52.009998,433.004974c0,0.002014 -0.001999,0.005005 -0.004997,0.005005c-0.003002,0 -0.005001,-0.002991 -0.005001,-0.005005c0,-0.002991 0.001999,-0.004974 0.005001,-0.004974c0.002998,0 0.004997,0.001984 0.004997,0.004974"/>
    </g>
    <g id="Group-18">
     <mask fill="white" id="mask-22">
      <use id="svg_11" xlink:href="#path-21"/>
     </mask>
     <g id="Clip-17"/>
     <path mask="url(#mask-22)" fill="#4A4C54" id="Fill-16" d="m118.009995,433.009888c0,0.002991 -0.001999,0.005005 -0.00499,0.005005c-0.003006,0 -0.005005,-0.002014 -0.005005,-0.005005c0,-0.002991 0.001999,-0.005005 0.005005,-0.005005c0.002991,0 0.00499,0.002014 0.00499,0.005005"/>
    </g>
    <g id="Group-21">
     <mask fill="white" id="mask-24">
      <use id="svg_12" xlink:href="#path-23"/>
     </mask>
     <g id="Clip-20"/>
     <path mask="url(#mask-24)" fill="#4A4C54" id="Fill-19" d="m84.897705,466.005005c0,0.002014 -0.002007,0.005005 -0.005005,0.005005c-0.002998,0 -0.005005,-0.002991 -0.005005,-0.005005c0,-0.002991 0.002007,-0.005005 0.005005,-0.005005c0.002998,0 0.005005,0.002014 0.005005,0.005005"/>
    </g>
    <g id="Group-24">
     <mask fill="white" id="mask-26">
      <use id="svg_13" xlink:href="#path-25"/>
     </mask>
     <g id="Clip-23"/>
     <path mask="url(#mask-26)" fill="#4A4C54" id="Fill-22" d="m84.892799,400.004974c0,0.003021 -0.001999,0.005005 -0.004997,0.005005c-0.003006,0 -0.005005,-0.001984 -0.005005,-0.005005c0,-0.002991 0.001999,-0.004974 0.005005,-0.004974c0.002998,0 0.004997,0.001984 0.004997,0.004974"/>
    </g>
   </g>
   <path fill="#000000" id="SaaS-Applications" d="m94.592041,352.640442c-1.782234,0 -3.243332,-0.582001 -4.592041,-1.76178l0.786751,-0.912384c1.172089,1.038208 2.296021,1.557312 3.853462,1.557312c1.50927,0 2.504745,-0.786499 2.504745,-1.871918l0,-0.031433c0,-1.022491 -0.561966,-1.604523 -2.922211,-2.092163c-2.58503,-0.550537 -3.773178,-1.36853 -3.773178,-3.177521l0,-0.031464c0,-1.730316 1.557442,-3.004486 3.692902,-3.004486c1.637718,0 2.809822,0.456177 3.949791,1.352814l-0.738579,0.959534c-1.04364,-0.83371 -2.08728,-1.195496 -3.243324,-1.195496c-1.461113,0 -2.392357,0.78653 -2.392357,1.777527l0,0.031464c0,1.038208 0.578018,1.620239 3.050644,2.139313c2.504761,0.534851 3.660797,1.431488 3.660797,3.114624l0,0.031464c0,1.887634 -1.605606,3.114594 -3.837402,3.114594zm8.68634,0.015747c-1.541382,0 -3.098824,-0.865173 -3.098824,-2.532593l0,-0.031464c0,-1.7146 1.445045,-2.626953 3.548393,-2.626953c1.0597,0 1.814339,0.141571 2.552917,0.346069l0,-0.283173c0,-1.462921 -0.915199,-2.217957 -2.472626,-2.217957c-0.979431,0 -1.750122,0.251678 -2.520813,0.597748l-0.369293,-0.991028c0.915207,-0.408966 1.814346,-0.676392 3.018547,-0.676392c1.172089,0 2.071228,0.298889 2.681366,0.896637c0.561958,0.550568 0.850967,1.337067 0.850967,2.375275l0,4.970795l-1.188148,0l0,-1.226959c-0.578018,0.739319 -1.541382,1.399994 -3.002487,1.399994zm0.240837,-0.959564c1.52533,0 2.777702,-0.912354 2.777702,-2.20224l0,-0.78653c-0.61013,-0.173035 -1.428978,-0.346069 -2.440521,-0.346069c-1.557442,0 -2.424469,0.660675 -2.424469,1.683167l0,0.031464c0,1.022461 0.963356,1.620209 2.087288,1.620209zm9.055634,0.959564c-1.541382,0 -3.098824,-0.865173 -3.098824,-2.532593l0,-0.031464c0,-1.7146 1.445038,-2.626953 3.548393,-2.626953c1.0597,0 1.814339,0.141571 2.552917,0.346069l0,-0.283173c0,-1.462921 -0.915192,-2.217957 -2.472626,-2.217957c-0.979431,0 -1.750122,0.251678 -2.520813,0.597748l-0.369293,-0.991028c0.915199,-0.408966 1.814346,-0.676392 3.018539,-0.676392c1.172096,0 2.071243,0.298889 2.681374,0.896637c0.561958,0.550568 0.850967,1.337067 0.850967,2.375275l0,4.970795l-1.188148,0l0,-1.226959c-0.578018,0.739319 -1.541382,1.399994 -3.002487,1.399994zm0.240845,-0.959564c1.525322,0 2.777702,-0.912354 2.777702,-2.20224l0,-0.78653c-0.61013,-0.173035 -1.428986,-0.346069 -2.440529,-0.346069c-1.557442,0 -2.424469,0.660675 -2.424469,1.683167l0,0.031464c0,1.022461 0.963356,1.620209 2.087296,1.620209zm10.64518,0.943817c-1.782227,0 -3.243324,-0.582001 -4.592033,-1.76178l0.786743,-0.912384c1.172096,1.038208 2.296021,1.557312 3.853462,1.557312c1.50927,0 2.504738,-0.786499 2.504738,-1.871918l0,-0.031433c0,-1.022491 -0.561943,-1.604523 -2.922195,-2.092163c-2.58503,-0.550537 -3.773178,-1.36853 -3.773178,-3.177521l0,-0.031464c0,-1.730316 1.557434,-3.004486 3.692894,-3.004486c1.637711,0 2.809814,0.456177 3.949806,1.352814l-0.738586,0.959534c-1.043648,-0.83371 -2.087296,-1.195496 -3.24334,-1.195496c-1.461098,0 -2.392349,0.78653 -2.392349,1.777527l0,0.031464c0,1.038208 0.578026,1.620239 3.050659,2.139313c2.504745,0.534851 3.660782,1.431488 3.660782,3.114624l0,0.031464c0,1.887634 -1.605606,3.114594 -3.837402,3.114594zm10.275894,-0.157288l5.121887,-11.089905l1.188156,0l5.121887,11.089905l-1.364761,0l-1.316605,-2.910126l-6.117371,0l-1.332657,2.910126l-1.300537,0zm3.130936,-4.042694l5.121887,0l-2.552917,-5.600006l-2.56897,5.600006zm10.307999,6.55954l0,-10.649445l1.236328,0l0,1.635956c0.674347,-0.975281 1.653778,-1.80899 3.179108,-1.80899c1.990952,0 3.965851,1.541595 3.965851,4.215729l0,0.031464c0,2.658447 -1.958847,4.231476 -3.965851,4.231476c-1.541397,0 -2.536865,-0.817993 -3.179108,-1.730347l0,4.074158l-1.236328,0zm4.190643,-3.429199c1.605606,0 2.922211,-1.164063 2.922211,-3.130341l0,-0.031464c0,-1.919098 -1.348709,-3.146088 -2.922211,-3.146088c-1.541382,0 -3.002487,1.27417 -3.002487,3.130341l0,0.031464c0,1.887634 1.461105,3.146088 3.002487,3.146088zm6.470596,3.429199l0,-10.649445l1.236328,0l0,1.635956c0.674347,-0.975281 1.653778,-1.80899 3.179108,-1.80899c1.990952,0 3.965851,1.541595 3.965851,4.215729l0,0.031464c0,2.658447 -1.958847,4.231476 -3.965851,4.231476c-1.541382,0 -2.536865,-0.817993 -3.179108,-1.730347l0,4.074158l-1.236328,0zm4.190643,-3.429199c1.605606,0 2.922211,-1.164063 2.922211,-3.130341l0,-0.031464c0,-1.919098 -1.348709,-3.146088 -2.922211,-3.146088c-1.541382,0 -3.002487,1.27417 -3.002487,3.130341l0,0.031464c0,1.887634 1.461105,3.146088 3.002487,3.146088zm6.582993,0.912354l0,-11.483154l1.236328,0l0,11.483154l-1.236328,0zm4.142471,-9.910126l0,-1.337067l1.412933,0l0,1.337067l-1.412933,0zm0.080276,9.910126l0,-8.132599l1.236328,0l0,8.132599l-1.236328,0zm7.851425,0.188751c-2.424469,0 -4.254852,-1.934814 -4.254852,-4.215729l0,-0.031464c0,-2.296631 1.830383,-4.247192 4.254852,-4.247192c1.573502,0 2.552917,0.644958 3.323608,1.447205l-0.818848,0.849426c-0.65831,-0.676392 -1.396881,-1.226959 -2.520813,-1.226959c-1.685883,0 -2.970367,1.399994 -2.970367,3.146057l0,0.031464c0,1.76181 1.316589,3.161804 3.050644,3.161804c1.059708,0 1.878571,-0.519104 2.536865,-1.211243l0.786743,0.723602c-0.834915,0.912354 -1.830383,1.573029 -3.387833,1.573029zm7.899597,-0.015717c-1.541382,0 -3.098831,-0.865173 -3.098831,-2.532593l0,-0.031464c0,-1.7146 1.445053,-2.626953 3.548401,-2.626953c1.059708,0 1.814346,0.141571 2.552917,0.346069l0,-0.283173c0,-1.462921 -0.915192,-2.217957 -2.472641,-2.217957c-0.979416,0 -1.750107,0.251678 -2.520798,0.597748l-0.369293,-0.991028c0.915192,-0.408966 1.814331,-0.676392 3.018539,-0.676392c1.172104,0 2.071243,0.298889 2.681366,0.896637c0.561966,0.550568 0.850983,1.337067 0.850983,2.375275l0,4.970795l-1.188156,0l0,-1.226959c-0.578018,0.739319 -1.541382,1.399994 -3.002487,1.399994zm0.240845,-0.959564c1.52533,0 2.777695,-0.912354 2.777695,-2.20224l0,-0.78653c-0.610123,-0.173035 -1.428986,-0.346069 -2.440521,-0.346069c-1.557434,0 -2.424469,0.660675 -2.424469,1.683167l0,0.031464c0,1.022461 0.963364,1.620209 2.087296,1.620209zm9.280411,0.928101c-1.332657,0 -2.344193,-0.644958 -2.344193,-2.296631l0,-4.907867l-1.156036,0l0,-1.069672l1.156036,0l0,-2.453918l1.236328,0l0,2.453918l2.633194,0l0,1.069672l-2.633194,0l0,4.750549c0,0.991028 0.561966,1.352814 1.396881,1.352814c0.41745,0 0.770691,-0.078644 1.204208,-0.283142l0,1.038208c-0.433517,0.220215 -0.899155,0.346069 -1.493225,0.346069zm3.741074,-10.051697l0,-1.337067l1.412933,0l0,1.337067l-1.412933,0zm0.080276,9.910126l0,-8.132599l1.236313,0l0,8.132599l-1.236313,0zm7.899597,0.188751c-2.488693,0 -4.30304,-1.919098 -4.30304,-4.215729l0,-0.031464c0,-2.296631 1.830399,-4.247192 4.335144,-4.247192c2.488693,0 4.319092,1.919098 4.319092,4.215729l0,0.031464c0,2.296631 -1.846451,4.247192 -4.351196,4.247192zm0.032104,-1.085388c1.798279,0 3.050659,-1.415741 3.050659,-3.130341l0,-0.031464c0,-1.746063 -1.332657,-3.177521 -3.082764,-3.177521c-1.798279,0 -3.034607,1.431458 -3.034607,3.146057l0,0.031464c0,1.746063 1.316605,3.161804 3.066711,3.161804zm6.550888,0.896637l0,-8.132599l1.236313,0l0,1.415741c0.545914,-0.88089 1.412933,-1.588776 2.841934,-1.588776c2.007004,0 3.179092,1.32135 3.179092,3.256195l0,5.049438l-1.236313,0l0,-4.75058c0,-1.510101 -0.834915,-2.453918 -2.296021,-2.453918c-1.428986,0 -2.488693,1.022461 -2.488693,2.548309l0,4.656189l-1.236313,0zm12.636139,0.157288c-1.188156,0 -2.504745,-0.456177 -3.436005,-1.195496l0.62619,-0.865173c0.899139,0.660675 1.894608,1.038208 2.874039,1.038208c0.995468,0 1.718002,-0.503387 1.718002,-1.289886l0,-0.031464c0,-0.817993 -0.979431,-1.132599 -2.071243,-1.431458c-1.300537,-0.361816 -2.74559,-0.802246 -2.74559,-2.296631l0,-0.031464c0,-1.399994 1.188156,-2.328094 2.825867,-2.328094c1.011536,0 2.135468,0.346069 2.986435,0.896637l-0.561966,0.912354c-0.770691,-0.48764 -1.653763,-0.786499 -2.456573,-0.786499c-0.979416,0 -1.605606,0.503357 -1.605606,1.179749l0,0.031464c0,0.770782 1.027588,1.069672 2.135452,1.399994c1.284485,0.377533 2.665314,0.865173 2.665314,2.328094l0,0.031464c0,1.541565 -1.300537,2.438202 -2.954315,2.438202z"/>
   <path fill="#000000" id="Service-Provider" d="m98.763748,499.967651c-1.700195,0 -3.416428,-0.598389 -4.763748,-1.81131l1.459602,-1.762817c1.01049,0.840973 2.069099,1.374664 3.352264,1.374664c1.01049,0 1.619995,-0.404297 1.619995,-1.067383l0,-0.032349c0,-0.630707 -0.384949,-0.954163 -2.261574,-1.439331c-2.261581,-0.582214 -3.721191,-1.212952 -3.721191,-3.460938l0,-0.032349c0,-2.053894 1.63604,-3.412384 3.929703,-3.412384c1.636032,0 3.031479,0.517517 4.17028,1.439362l-1.283157,1.876007c-0.994453,-0.695435 -1.97287,-1.115906 -2.919205,-1.115906c-0.946335,0 -1.443558,0.436646 -1.443558,0.986511l0,0.032349c0,0.743927 0.481194,0.986511 2.421967,1.487885c2.277626,0.598358 3.560791,1.423157 3.560791,3.39621l0,0.032349c0,2.247986 -1.700195,3.50943 -4.122169,3.50943zm10.088882,0.032349c-2.582367,0 -4.491081,-1.827484 -4.491081,-4.479797l0,-0.032318c0,-2.474396 1.748314,-4.512146 4.250488,-4.512146c2.871086,0 4.186325,2.247986 4.186325,4.706207c0,0.194061 -0.016045,0.420471 -0.032082,0.646881l-5.982758,0c0.240593,1.115906 1.010498,1.69812 2.101173,1.69812c0.818031,0 1.411491,-0.258759 2.085152,-0.889496l1.395454,1.2453c-0.801987,1.002686 -1.956841,1.617249 -3.512672,1.617249zm-2.101181,-5.20755l3.673058,0c-0.144356,-1.099731 -0.785934,-1.843658 -1.812469,-1.843658c-1.01049,0 -1.668121,0.727753 -1.860588,1.843658zm7.859383,5.013489l0,-8.668488l2.438011,0l0,1.746643c0.497223,-1.196777 1.29921,-1.973053 2.74276,-1.908356l0,2.571442l-0.128311,0c-1.619995,0 -2.614449,0.986511 -2.614449,3.05658l0,3.202179l-2.438011,0zm9.318977,0.064667l-3.384346,-8.733154l2.582367,0l1.924751,5.805939l1.940788,-5.805939l2.534248,0l-3.384346,8.733154l-2.213463,0zm7.057404,-9.687317l0,-2.183289l2.56633,0l0,2.183289l-2.56633,0zm0.064163,9.62265l0,-8.668488l2.438004,0l0,8.668488l-2.438004,0zm8.789673,0.194061c-2.582367,0 -4.475037,-2.005402 -4.475037,-4.479797l0,-0.032318c0,-2.474396 1.876633,-4.512146 4.507126,-4.512146c1.619995,0 2.630478,0.549866 3.432465,1.455536l-1.491684,1.617249c-0.545349,-0.582214 -1.090698,-0.954193 -1.956833,-0.954193c-1.218994,0 -2.085144,1.083557 -2.085144,2.361206l0,0.032349c0,1.326141 0.850098,2.393524 2.181381,2.393524c0.818024,0 1.37941,-0.355804 1.97287,-0.921844l1.427521,1.455536c-0.834061,0.921814 -1.796432,1.5849 -3.512665,1.5849zm8.934036,0c-2.582367,0 -4.491074,-1.827484 -4.491074,-4.479797l0,-0.032318c0,-2.474396 1.748306,-4.512146 4.250473,-4.512146c2.871094,0 4.186325,2.247986 4.186325,4.706207c0,0.194061 -0.016037,0.420471 -0.032074,0.646881l-5.982758,0c0.240601,1.115906 1.010498,1.69812 2.101181,1.69812c0.818024,0 1.411484,-0.258759 2.085144,-0.889496l1.395447,1.2453c-0.801987,1.002686 -1.956833,1.617249 -3.512665,1.617249zm-2.101181,-5.20755l3.67305,0c-0.144348,-1.099731 -0.785934,-1.843658 -1.812469,-1.843658c-1.010483,0 -1.668106,0.727753 -1.86058,1.843658zm12.927887,5.013489l0,-11.32077l4.587311,0c2.678604,0 4.298599,1.601074 4.298599,3.913757l0,0.032349c0,2.619934 -2.020981,3.978424 -4.5392,3.978424l-1.876617,0l0,3.39624l-2.470093,0zm2.470093,-5.611877l1.956818,0c1.235046,0 1.956833,-0.743927 1.956833,-1.714264l0,-0.032349c0,-1.115906 -0.769897,-1.714294 -2.004944,-1.714294l-1.908707,0l0,3.460907zm7.987686,5.611877l0,-8.668488l2.438019,0l0,1.746643c0.497223,-1.196777 1.29921,-1.973053 2.742767,-1.908356l0,2.571442l-0.128326,0c-1.619995,0 -2.614441,0.986511 -2.614441,3.05658l0,3.202179l-2.438019,0zm10.682343,0.194061c-2.662552,0 -4.635422,-1.989227 -4.635422,-4.479797l0,-0.032318c0,-2.49057 1.988907,-4.512146 4.667511,-4.512146c2.662567,0 4.635422,1.989227 4.635422,4.479797l0,0.032349c0,2.49054 -1.988892,4.512115 -4.667511,4.512115zm0.032089,-2.118591c1.395432,0 2.229492,-1.083557 2.229492,-2.361206l0,-0.032318c0,-1.277649 -0.914246,-2.393555 -2.261581,-2.393555c-1.395432,0 -2.229492,1.083557 -2.229492,2.361206l0,0.032349c0,1.277618 0.914261,2.393524 2.261581,2.393524zm8.533035,1.989197l-3.384338,-8.733154l2.582367,0l1.924744,5.805939l1.940796,-5.805939l2.534241,0l-3.384338,8.733154l-2.21347,0zm7.057404,-9.687317l0,-2.183289l2.56633,0l0,2.183289l-2.56633,0zm0.064163,9.62265l0,-8.668488l2.438019,0l0,8.668488l-2.438019,0zm8.260376,0.161713c-2.004944,0 -3.913651,-1.5849 -3.913651,-4.479767l0,-0.032349c0,-2.894897 1.876617,-4.479797 3.913651,-4.479797c1.299194,0 2.101181,0.598389 2.678604,1.293793l0,-4.269531l2.438019,0l0,11.805939l-2.438019,0l0,-1.2453c-0.59346,0.808624 -1.411484,1.407013 -2.678604,1.407013zm0.625534,-2.086243c1.138809,0 2.085144,-0.954193 2.085144,-2.393524l0,-0.032349c0,-1.439362 -0.946335,-2.393555 -2.085144,-2.393555c-1.138809,0 -2.101181,0.938019 -2.101181,2.393555l0,0.032349c0,1.439331 0.962372,2.393524 2.101181,2.393524zm10.746506,2.118591c-2.582367,0 -4.491074,-1.827484 -4.491074,-4.479797l0,-0.032318c0,-2.474396 1.748306,-4.512146 4.250488,-4.512146c2.871078,0 4.186325,2.247986 4.186325,4.706207c0,0.194061 -0.016052,0.420471 -0.032089,0.646881l-5.982758,0c0.240601,1.115906 1.010498,1.69812 2.101196,1.69812c0.818008,0 1.411469,-0.258759 2.085129,-0.889496l1.395447,1.2453c-0.801971,1.002686 -1.956818,1.617249 -3.512665,1.617249zm-2.101181,-5.20755l3.673065,0c-0.144363,-1.099731 -0.78595,-1.843658 -1.812469,-1.843658c-1.010498,0 -1.668121,0.727753 -1.860596,1.843658zm7.85939,5.013489l0,-8.668488l2.438004,0l0,1.746643c0.497223,-1.196777 1.29921,-1.973053 2.742767,-1.908356l0,2.571442l-0.128311,0c-1.619995,0 -2.614456,0.986511 -2.614456,3.05658l0,3.202179l-2.438004,0z"/>
   <path fill="#76787F" id="And-more" d="m132,455.88678l3.166962,-6.65094l0.734665,0l3.166962,6.65094l-0.843857,0l-0.814087,-1.74527l-3.782486,0l-0.824005,1.74527l-0.804153,0zm1.935928,-2.42453l3.166962,0l-1.578522,-3.35849l-1.58844,3.35849zm6.373642,2.42453l0,-4.87735l0.764435,0l0,0.84906c0.33754,-0.52829 0.873642,-0.95282 1.757217,-0.95282c1.240982,0 1.965714,0.79245 1.965714,1.95282l0,3.02829l-0.76445,0l0,-2.84903c0,-0.90567 -0.516235,-1.47171 -1.419662,-1.47171c-0.883575,0 -1.538818,0.61322 -1.538818,1.52829l0,2.79245l-0.764435,0zm8.269852,0.10379c-1.231049,0 -2.452164,-0.92453 -2.452164,-2.52832l0,-0.01886c0,-1.59433 1.221115,-2.53772 2.452164,-2.53772c0.953064,0 1.568588,0.49057 1.965698,1.03772l0,-2.94339l0.76445,0l0,6.88678l-0.76445,0l0,-0.98111c-0.416962,0.5849 -1.022552,1.0849 -1.965698,1.0849zm0.138992,-0.65094c0.953064,0 1.856491,-0.76416 1.856491,-1.88681l0,-0.01886c0,-1.12265 -0.903427,-1.87735 -1.856491,-1.87735c-0.992783,0 -1.80687,0.69812 -1.80687,1.87735l0,0.01886c0,1.15094 0.843872,1.88681 1.80687,1.88681zm7.277069,0.54715l0,-4.87735l0.76445,0l0,0.82077c0.33754,-0.48114 0.79422,-0.92453 1.657944,-0.92453c0.833923,0 1.370026,0.42453 1.64801,0.97168c0.367325,-0.53772 0.913361,-0.97168 1.806854,-0.97168c1.181412,0 1.906143,0.7547 1.906143,1.96225l0,3.01886l-0.76445,0l0,-2.84903c0,-0.94342 -0.496384,-1.47171 -1.330322,-1.47171c-0.774368,0 -1.409744,0.54718 -1.409744,1.50943l0,2.81131l-0.764435,0l0,-2.86792c0,-0.9151 -0.506317,-1.45282 -1.320404,-1.45282c-0.814072,0 -1.429596,0.64151 -1.429596,1.53772l0,2.78302l-0.76445,0zm11.784302,0.11322c-1.538803,0 -2.660645,-1.15094 -2.660645,-2.52829l0,-0.01889c0,-1.37735 1.13176,-2.54715 2.680496,-2.54715c1.538818,0 2.670578,1.15094 2.670578,2.52829l0,0.01886c0,1.37738 -1.141693,2.54718 -2.69043,2.54718zm0.019852,-0.65094c1.111908,0 1.886292,-0.84906 1.886292,-1.87735l0,-0.01889c0,-1.04715 -0.82402,-1.90564 -1.906143,-1.90564c-1.111908,0 -1.876358,0.85849 -1.876358,1.88678l0,0.01886c0,1.04718 0.814087,1.89624 1.89621,1.89624zm4.050537,0.53772l0,-4.87735l0.76445,0l0,1.27359c0.377258,-0.81131 1.121841,-1.39624 2.094757,-1.35849l0,0.78302l-0.059555,0c-1.121841,0 -2.035202,0.76416 -2.035202,2.23584l0,1.94339l-0.76445,0zm6.046036,0.11322c-1.409744,0 -2.561371,-1.02829 -2.561371,-2.53775l0,-0.01886c0,-1.40564 1.042419,-2.53772 2.462097,-2.53772c1.518951,0 2.392593,1.15094 2.392593,2.57547c0,0.09433 0,0.15094 -0.009933,0.23584l-4.070389,0c0.109207,1.05661 0.893494,1.65094 1.806854,1.65094c0.70488,0 1.201263,-0.27359 1.61824,-0.68866l0.476532,0.40564c-0.516251,0.54718 -1.141693,0.9151 -2.114624,0.9151zm-1.787003,-2.82074l3.305954,0c-0.079422,-0.88681 -0.615524,-1.6604 -1.638092,-1.6604c-0.893494,0 -1.568588,0.70755 -1.667862,1.6604zm9.997284,2.70752l0,-0.97168l0.893509,0l0,0.97168l-0.893509,0zm-2.38266,0l0,-0.97168l0.883575,0l0,0.97168l-0.883575,0zm-2.382675,0l0,-0.97168l0.883575,0l0,0.97168l-0.883575,0z"/>
   <path fill-rule="nonzero" fill="#A4A5A9" d="m189.38472,62.959999l-88.334106,0l-0.5,0l0,-1l0.5,0l88.334106,0l0,-4l9,4.5l-9,4.5l0,-4z" id="Line"/>
   <path fill-rule="nonzero" fill="#A4A5A9" d="m109.550613,86.959999l88.334106,0l0.5,0l0,1l-0.5,0l-88.334106,0l0,4l-9,-4.5l9,-4.5l0,4z" id="Line"/>
   <path fill="#76787F" id="SAML" d="m135.036865,80c-1.479263,0 -2.87558,-0.513893 -4.036865,-1.555557l1.023041,-1.222221c0.92627,0.805557 1.866364,1.263885 3.055298,1.263885c1.05069,0 1.714294,-0.5 1.714294,-1.222214l0,-0.027786c0,-0.69445 -0.3871,-1.06945 -2.184341,-1.486107c-2.059906,-0.5 -3.221191,-1.111107 -3.221191,-2.902779l0,-0.027779c0,-1.666664 1.382492,-2.819443 3.304138,-2.819443c1.410141,0 2.529953,0.430557 3.51152,1.222221l-0.91243,1.291672c-0.870972,-0.652786 -1.741943,-1 -2.62674,-1c-0.995392,0 -1.576035,0.513885 -1.576035,1.152763l0,0.027786c0,0.75 0.442398,1.083336 2.308762,1.527779c2.046082,0.5 3.096771,1.236122 3.096771,2.847221l0,0.027779c0,1.819435 -1.423965,2.902779 -3.456223,2.902779zm4.423965,-0.138893l4.258057,-9.791664l1.57605,0l4.258057,9.791664l-1.797241,0l-0.981552,-2.347214l-4.57605,0l-0.995392,2.347214l-1.741928,0zm3.359451,-3.861107l3.331787,0l-1.672806,-3.888893l-1.658981,3.888893zm8.391693,3.861107l0,-9.722214l1.811066,0l2.944702,4.597214l2.944702,-4.597214l1.81105,0l0,9.722214l-1.700455,0l0,-6.972214l-3.055298,4.583328l-0.055298,0l-3.027649,-4.555565l0,6.94445l-1.672821,0zm12,0l0,-9.722214l1.70047,0l0,8.166664l5.087555,0l0,1.55555l-6.788025,0z"/>
   <path fill="#000000" id="User" d="m52.844681,128.984558c-3.005939,0 -4.844681,-1.6222 -4.844681,-4.804787l0,-6.179771l2.462311,0l0,6.117981c0,1.76123 0.911381,2.672752 2.414349,2.672752c1.502972,0 2.414341,-0.880623 2.414341,-2.595505l0,-6.195229l2.462311,0l0,6.102531c0,3.275276 -1.902691,4.882027 -4.90863,4.882027zm10.169029,-0.015457c-1.199181,0 -2.542259,-0.38623 -3.677479,-1.251404l1.03928,-1.544945c0.927368,0.64888 1.902699,0.988754 2.702148,0.988754c0.703522,0 1.0233,-0.247177 1.0233,-0.617966l0,-0.030899c0,-0.509834 -0.831429,-0.679779 -1.77478,-0.95787c-1.199181,-0.339882 -2.55825,-0.880615 -2.55825,-2.487358l0,-0.030907c0,-1.683975 1.407032,-2.626396 3.13385,-2.626396c1.087261,0 2.270454,0.355339 3.197807,0.95787l-0.927353,1.622192c-0.847427,-0.478935 -1.694843,-0.772476 -2.318424,-0.772476c-0.591591,0 -0.895378,0.247192 -0.895378,0.571632l0,0.030899c0,0.463478 0.815437,0.679771 1.742798,0.988762c1.199184,0.386238 2.590229,0.942413 2.590229,2.456459l0,0.030899c0,1.838478 -1.423027,2.672752 -3.277748,2.672752zm9.081757,0.030899c-2.574226,0 -4.476913,-1.745789 -4.476913,-4.279503l0,-0.030884c0,-2.36377 1.742798,-4.310402 4.237083,-4.310402c2.862045,0 4.173141,2.147476 4.173141,4.495789c0,0.185387 -0.015991,0.401688 -0.031975,0.617981l-5.963913,0c0.239838,1.06601 1.007309,1.622192 2.094566,1.622192c0.81543,0 1.407036,-0.247192 2.078575,-0.849724l1.391045,1.189613c-0.799454,0.957855 -1.950653,1.544937 -3.50161,1.544937zm-2.094543,-4.974716l3.661476,0c-0.143898,-1.050568 -0.783463,-1.76123 -1.806763,-1.76123c-1.007294,0 -1.662857,0.695213 -1.854713,1.76123zm7.834618,4.789322l0,-8.280899l2.430336,0l0,1.668541c0.495667,-1.143257 1.295113,-1.884834 2.734123,-1.823036l0,2.456459l-0.127907,0c-1.614906,0 -2.606216,0.942421 -2.606216,2.919952l0,3.058983l-2.430336,0z"/>
  </g>
  <text xml:space="preserve" text-anchor="start" font-family="Helvetica, Arial, sans-serif" font-size="10" id="svg_15" y="52.449997" x="99.5" stroke-width="0" stroke="#000" fill="#000000">Step 1: Auth Request</text>
  <text xml:space="preserve" text-anchor="start" font-family="Helvetica, Arial, sans-serif" font-size="10" id="svg_16" y="102.449997" x="101.5" stroke-width="0" stroke="#000" fill="#000000">Step 2: Auth Response</text>
  <text xml:space="preserve" text-anchor="start" font-family="Helvetica, Arial, sans-serif" font-size="10" id="svg_17" y="208.449997" x="34.5" stroke-width="0" stroke="#000" fill="#000000">Step 3: App Auth</text>
 </g>
</svg>